<svg version="1.1" id="Layer_1" xmlns="http://www.w3.org/2000/svg" xmlns:xlink="http://www.w3.org/1999/xlink" x="0px" y="0px"
	 width="100%" viewBox="0 0 1599 833" enable-background="new 0 0 1599 833" xml:space="preserve">
<path fill="#000000" opacity="1.000000" stroke="none" 
	d="
M1058.000000,834.000000 
	C705.333313,834.000000 353.166656,834.000000 1.000000,834.000000 
	C1.000000,556.333313 1.000000,278.666656 1.000000,1.000000 
	C534.000000,1.000000 1067.000000,1.000000 1600.000000,1.000000 
	C1600.000000,278.666656 1600.000000,556.333313 1600.000000,834.000000 
	C1419.500000,834.000000 1239.000000,834.000000 1058.000000,834.000000 
M1429.996460,551.534607 
	C1429.337891,551.691650 1428.679443,551.848755 1427.616211,552.864990 
	C1427.616211,561.299622 1427.616211,569.734253 1427.616211,578.168884 
	C1428.385376,578.158386 1429.154663,578.147888 1429.923828,578.137451 
	C1429.923828,574.030884 1429.923828,569.924316 1430.236206,565.210999 
	C1432.234375,562.829468 1434.763428,560.257935 1437.736694,562.202576 
	C1439.364502,563.267212 1439.782715,566.579102 1440.205444,568.973145 
	C1440.604614,571.233459 1440.134155,573.636353 1440.384155,575.939941 
	C1440.472900,576.757996 1441.555664,577.468201 1442.184570,578.227600 
	C1442.647339,577.499695 1443.474243,576.788879 1443.509521,576.040833 
	C1443.658325,572.885620 1443.642700,569.717285 1443.555054,566.557434 
	C1443.375366,560.076050 1440.139893,557.698669 1433.764893,559.079346 
	C1432.649536,559.320923 1431.381592,558.857117 1430.399048,557.896973 
	C1430.258301,555.933411 1430.117432,553.969849 1429.996460,551.534607 
M1291.887695,585.081909 
	C1291.849487,582.700745 1291.811279,580.319519 1292.425537,577.298584 
	C1296.435913,578.822449 1300.449707,579.939087 1303.723511,575.920837 
	C1306.368652,572.674194 1306.494263,565.179993 1303.899414,561.832581 
	C1300.798340,557.831909 1296.977783,557.983765 1292.868408,560.263672 
	C1292.479492,560.479492 1291.709473,560.008728 1290.761597,559.205505 
	C1290.076172,559.634033 1288.798950,560.054138 1288.792847,560.492188 
	C1288.676636,568.708618 1288.681641,576.927612 1288.837891,585.142761 
	C1288.843140,585.426636 1290.673218,585.675842 1291.887695,585.081909 
M1346.767822,561.720947 
	C1351.197021,561.108521 1352.801392,563.354553 1352.713013,567.471497 
	C1352.637085,571.015808 1352.697266,574.563049 1352.697266,578.109009 
	C1353.247437,578.233887 1353.797607,578.358765 1354.347900,578.483643 
	C1354.822266,577.432251 1355.637329,576.402527 1355.705811,575.325317 
	C1355.895020,572.349304 1355.903198,569.346680 1355.746826,566.366943 
	C1355.386597,559.502197 1351.943237,557.453125 1344.118286,560.073792 
	C1342.789551,559.736450 1341.460815,559.399048 1339.432983,558.884216 
	C1339.432983,565.049438 1339.393433,570.805420 1339.494873,576.559021 
	C1339.504883,577.128235 1340.581665,578.228882 1340.811035,578.142883 
	C1341.566528,577.859741 1342.676514,577.187439 1342.726562,576.587402 
	C1342.947388,573.947876 1342.451782,571.201355 1342.972046,568.647644 
	C1343.462036,566.242310 1344.898682,564.029846 1346.767822,561.720947 
M1257.253296,559.163391 
	C1256.875488,559.380798 1256.172607,559.590698 1256.167480,559.816772 
	C1256.036255,565.506470 1255.941895,571.198303 1255.997681,576.888184 
	C1256.000977,577.234253 1257.296509,577.567749 1258.708862,577.737122 
	C1258.875000,573.779419 1258.540405,569.703552 1259.433472,565.917236 
	C1259.836670,564.207397 1262.683716,563.073975 1264.422119,561.679077 
	C1265.578369,563.181824 1267.441406,564.558228 1267.737549,566.214722 
	C1268.284424,569.273926 1267.767578,572.508484 1268.008911,575.645813 
	C1268.084717,576.631226 1269.169800,577.539124 1269.792969,578.482483 
	C1270.245728,578.245544 1270.698486,578.008606 1271.151245,577.771667 
	C1271.151245,573.977905 1270.958130,570.171204 1271.212524,566.394592 
	C1271.414795,563.390381 1273.248413,560.993530 1276.383911,561.892273 
	C1277.914429,562.330994 1279.574707,564.880737 1279.830811,566.667786 
	C1280.360840,570.367432 1279.990723,574.196045 1279.990723,577.971619 
	C1280.466797,578.176697 1280.942871,578.381836 1281.418945,578.586975 
	C1282.044556,577.557800 1283.119995,576.566101 1283.209473,575.492188 
	C1283.456787,572.523682 1283.363770,569.518799 1283.276855,566.532043 
	C1283.067993,559.356140 1278.660645,556.827698 1272.293945,560.012268 
	C1271.348022,560.485291 1269.924438,560.050232 1268.727051,559.964172 
	C1266.344116,559.792847 1263.967651,559.506958 1261.582642,559.398987 
	C1260.385254,559.344788 1259.174927,559.577026 1257.253296,559.163391 
M1361.660400,357.023438 
	C1335.050171,341.574280 1308.449097,326.109375 1281.821899,310.689484 
	C1276.643188,307.690491 1266.975098,313.296234 1266.965698,319.255707 
	C1266.939331,336.085785 1267.087158,352.917816 1266.849365,369.744598 
	C1266.794067,373.655640 1268.178345,375.675995 1271.461182,377.539612 
	C1294.171265,390.431671 1316.828613,403.420288 1339.332764,416.666718 
	C1341.920532,418.189880 1344.678955,421.261627 1345.204834,424.025116 
	C1346.026978,428.345276 1345.009155,433.015594 1344.739746,438.126465 
	C1318.543091,423.001648 1293.042358,408.278625 1266.969727,393.225372 
	C1266.969727,401.958466 1266.805298,409.784515 1267.110840,417.592102 
	C1267.170776,419.125244 1268.710815,421.163635 1270.136475,421.996826 
	C1297.832886,438.183777 1325.599365,454.251373 1353.389771,470.276794 
	C1358.916992,473.464081 1368.530396,467.782196 1368.566406,461.442780 
	C1368.652588,446.283051 1368.503906,431.117218 1368.911377,415.966248 
	C1369.088623,409.380249 1366.921143,405.143738 1361.047363,401.844910 
	C1338.721924,389.306671 1316.603394,376.399811 1294.451538,363.554779 
	C1292.822510,362.610107 1290.426147,361.162903 1290.300049,359.775360 
	C1289.812744,354.417084 1290.102173,348.988251 1290.102173,342.737366 
	C1316.576416,357.993256 1342.111816,372.708130 1368.483154,387.904724 
	C1368.483154,380.473083 1368.128784,374.018463 1368.593994,367.623505 
	C1368.975708,362.375092 1367.198486,359.066467 1361.660400,357.023438 
M1320.319946,287.317413 
	C1318.916992,287.144745 1317.171997,286.347931 1316.166138,286.899506 
	C1309.061768,290.795044 1302.109375,294.967590 1294.673828,299.305206 
	C1296.211426,300.386932 1297.213745,301.212982 1298.322754,301.854553 
	C1325.386719,317.510559 1352.423828,333.213959 1379.578979,348.710602 
	C1383.399536,350.890930 1384.853271,353.410553 1384.825562,357.820435 
	C1384.633057,388.465454 1384.691650,419.112061 1384.691528,449.758179 
	C1384.691528,451.675385 1384.875244,453.592621 1385.006348,456.150970 
	C1391.482544,452.455475 1397.178345,449.056122 1403.022217,445.934082 
	C1405.900635,444.396301 1406.797729,442.385864 1406.784668,439.151062 
	C1406.653442,406.673401 1406.645630,374.194977 1406.739868,341.717133 
	C1406.749146,338.538544 1405.866455,336.676788 1403.004150,335.038239 
	C1375.601440,319.351440 1348.291138,303.503204 1320.319946,287.317413 
M1453.861694,514.820923 
	C1456.293823,507.113098 1458.726074,499.405273 1461.182983,491.618835 
	C1455.969482,489.939056 1453.258545,491.126404 1452.561523,496.499207 
	C1452.096802,500.081940 1450.731689,503.547913 1449.769531,507.066132 
	C1449.259155,507.032471 1448.748657,506.998810 1448.238281,506.965149 
	C1447.052368,502.750061 1445.632080,498.582489 1444.764282,494.302887 
	C1444.201416,491.527283 1442.858887,491.023682 1440.326050,490.943787 
	C1437.568604,490.856781 1436.527832,491.931000 1435.976074,494.460754 
	C1435.016357,498.859894 1433.749268,503.192017 1432.611084,507.552246 
	C1432.129761,507.525848 1431.648560,507.499481 1431.167358,507.473083 
	C1430.197998,503.886841 1429.186401,500.311340 1428.268433,496.711975 
	C1426.662598,490.415619 1426.686768,490.409454 1419.392212,491.622253 
	C1421.871460,499.557159 1424.471680,507.387604 1426.717285,515.318359 
	C1427.565308,518.313049 1429.064697,519.039001 1432.004639,519.104492 
	C1435.157471,519.174622 1435.937744,517.622559 1436.524170,515.094971 
	C1437.489258,510.935394 1438.693237,506.831207 1439.796509,502.703644 
	C1440.165771,502.764038 1440.535034,502.824402 1440.904297,502.884796 
	C1442.284546,508.147064 1443.664795,513.409363 1445.089722,518.841919 
	C1448.419922,518.444275 1452.523560,521.126465 1453.861694,514.820923 
M1265.964722,516.277954 
	C1267.529297,515.208008 1269.561157,514.454956 1270.550903,512.995300 
	C1272.104614,510.703979 1272.955322,507.936005 1274.103760,505.369904 
	C1274.556030,505.504669 1275.008179,505.639404 1275.460449,505.774170 
	C1275.460449,510.032501 1275.460449,514.290833 1275.460449,518.632568 
	C1277.842285,518.632568 1279.717041,518.632568 1281.681519,518.632568 
	C1281.681519,509.346924 1281.681519,500.422211 1281.681519,491.565094 
	C1276.731323,490.194244 1273.148193,490.615936 1271.662109,496.373505 
	C1270.793823,499.736969 1268.807861,502.811951 1266.889038,506.958435 
	C1265.027222,502.766113 1263.274658,499.732635 1262.321045,496.465942 
	C1260.750610,491.086182 1257.407349,489.971771 1252.374512,491.502686 
	C1252.374512,500.510925 1252.374512,509.564545 1252.374512,518.729248 
	C1254.443970,518.729248 1256.203125,518.729248 1258.861816,518.729248 
	C1258.861816,514.425232 1258.861816,510.387970 1258.861816,506.350708 
	C1259.204590,506.356995 1259.547363,506.363281 1259.890137,506.369568 
	C1261.687622,509.629669 1263.485229,512.889771 1265.964722,516.277954 
M1360.774292,501.562378 
	C1360.774292,507.288330 1360.774292,513.014282 1360.774292,518.603821 
	C1363.388306,518.603821 1365.272339,518.603821 1367.714355,518.603821 
	C1367.714355,513.697388 1367.714355,509.177460 1367.714355,504.657501 
	C1371.322021,507.877808 1374.271118,511.199554 1376.460938,514.963196 
	C1378.692993,518.799377 1381.460449,519.878296 1385.589111,518.473389 
	C1385.589111,509.458893 1385.589111,500.431122 1385.589111,491.341187 
	C1383.312866,491.341187 1381.402100,491.341187 1378.881348,491.341187 
	C1378.881348,496.169342 1378.881348,500.695496 1378.881348,505.491974 
	C1371.520508,501.978363 1371.909180,489.687683 1360.774658,491.204254 
	C1360.774658,494.643341 1360.774658,497.618988 1360.774292,501.562378 
M1356.240845,494.471802 
	C1355.478027,493.327393 1354.757446,491.226593 1353.945435,491.190613 
	C1347.702148,490.914215 1341.441040,491.038574 1334.839722,491.038574 
	C1334.839722,496.131683 1334.839600,500.593689 1334.839600,505.055695 
	C1334.839600,509.628265 1334.839722,514.200806 1334.839722,518.734497 
	C1342.484741,518.734497 1349.407837,518.734497 1356.285034,518.734497 
	C1357.075928,513.337524 1357.075928,513.328064 1352.332520,513.303711 
	C1349.051636,513.286865 1345.770508,513.300537 1342.056396,513.300537 
	C1342.270630,511.359131 1342.215210,509.085968 1342.576050,509.017853 
	C1346.520020,508.273560 1350.529053,507.873779 1354.611572,507.369049 
	C1354.611572,505.763977 1354.611572,504.200836 1354.611572,502.164337 
	C1351.674072,502.164337 1349.050415,502.210022 1346.428833,502.154083 
	C1342.024292,502.060150 1342.024902,502.032959 1342.786011,496.789185 
	C1345.838989,496.789185 1348.982910,496.943909 1352.099243,496.718750 
	C1353.492920,496.618073 1354.831543,495.754913 1356.240845,494.471802 
M1417.047974,511.489441 
	C1419.902588,504.117371 1418.622437,498.254486 1413.222534,493.968414 
	C1408.379517,490.124420 1400.068604,489.963196 1394.954834,493.614044 
	C1389.737427,497.338837 1387.679199,503.914490 1390.040039,510.035645 
	C1391.916870,514.901733 1395.521973,517.923401 1400.722046,518.759155 
	C1407.371582,519.827759 1412.910278,518.012756 1417.047974,511.489441 
M1218.635376,505.831512 
	C1220.831177,506.595947 1223.129639,507.157684 1225.184814,508.199432 
	C1226.452637,508.842102 1227.349731,510.216492 1228.413208,511.262360 
	C1226.870361,511.815125 1225.188965,513.054504 1223.813721,512.776917 
	C1221.000488,512.209229 1218.351929,510.826477 1215.365356,509.675293 
	C1214.562012,511.991882 1211.270020,514.050598 1215.222290,516.313904 
	C1220.042480,519.074341 1225.190186,519.851746 1230.589478,518.201538 
	C1233.970459,517.168152 1235.857666,514.943481 1236.119995,511.352722 
	C1236.396484,507.570740 1234.825684,504.931458 1231.338989,503.509521 
	C1229.495239,502.757599 1227.444824,502.426239 1225.732178,501.468048 
	C1224.501953,500.779663 1223.676270,499.367828 1222.670166,498.278748 
	C1224.147217,497.938232 1225.677979,497.175201 1227.089111,497.354340 
	C1229.308716,497.636078 1231.447876,498.552124 1233.528687,499.172058 
	C1236.622925,493.744110 1236.448975,492.955933 1231.097656,491.825470 
	C1228.227783,491.219269 1224.940918,490.677826 1222.282959,491.511780 
	C1219.590698,492.356476 1216.628174,494.468475 1215.258911,496.867249 
	C1213.508057,499.934631 1214.724854,503.338989 1218.635376,505.831512 
M1287.363892,491.868317 
	C1287.363892,500.756439 1287.363892,509.644562 1287.363892,518.721069 
	C1289.759521,518.721069 1291.822144,518.721069 1294.107788,518.721069 
	C1294.266602,516.381104 1294.408936,514.284180 1294.569824,511.912292 
	C1296.887207,511.749542 1299.018066,511.709717 1301.117432,511.431519 
	C1306.977051,510.654999 1310.010254,506.934509 1309.922729,500.786224 
	C1309.839722,494.952087 1306.748169,491.474121 1300.799561,491.145630 
	C1296.518433,490.909210 1292.206543,491.230438 1287.363892,491.868317 
M1211.604004,552.779114 
	C1209.358521,553.324158 1206.933228,553.497498 1204.900391,554.481873 
	C1197.989014,557.828735 1194.981812,567.262268 1198.180664,574.788574 
	C1200.640991,580.576843 1208.730347,583.444031 1215.899536,580.951721 
	C1216.850098,580.621216 1217.578003,579.650330 1218.409058,578.976074 
	C1216.228882,578.220764 1214.665894,578.557739 1213.087769,578.793030 
	C1207.352539,579.648010 1202.933838,577.894592 1200.955444,574.019897 
	C1198.669189,569.542053 1199.807251,562.191406 1203.328491,558.693970 
	C1206.670654,555.374573 1213.807861,554.457642 1217.765625,556.839294 
	C1221.532837,559.106323 1223.466919,564.171875 1221.872559,568.664612 
	C1221.423096,569.930725 1219.759033,570.765808 1218.652100,571.798584 
	C1218.092529,570.579163 1217.181274,569.396667 1217.048584,568.132446 
	C1216.791748,565.685669 1216.973511,563.192810 1216.973511,560.555481 
	C1212.834351,559.569946 1208.440796,558.618652 1206.002808,562.632263 
	C1204.589844,564.958008 1204.086670,569.035217 1205.157349,571.442139 
	C1208.150024,578.170105 1214.782959,571.354370 1219.329834,574.205139 
	C1219.863403,574.539612 1223.459229,571.656738 1224.191772,569.719482 
	C1227.451050,561.100525 1222.166260,553.782959 1211.604004,552.779114 
M1313.131958,516.814941 
	C1313.453979,517.483704 1313.764282,518.728760 1314.099487,518.735474 
	C1319.990723,518.853943 1325.885010,518.821167 1332.023315,518.821167 
	C1331.877686,516.561462 1331.775146,514.970337 1331.646484,512.974487 
	C1327.888550,512.974487 1324.453735,512.974487 1320.395996,512.974487 
	C1320.395996,505.523438 1320.395996,498.474487 1320.395996,491.300415 
	C1317.699707,491.300415 1315.633789,491.300415 1313.110596,491.300415 
	C1313.110596,499.732147 1313.110596,507.851624 1313.131958,516.814941 
M1389.207520,577.460876 
	C1390.567871,573.519409 1391.928223,569.578003 1393.288696,565.636597 
	C1395.481567,569.273560 1396.537354,572.885620 1397.874146,576.390625 
	C1398.182739,577.199829 1399.462891,578.133423 1400.277832,578.116760 
	C1401.107788,578.099854 1402.413452,577.128723 1402.651611,576.321777 
	C1404.281860,570.800354 1405.686157,565.212219 1407.237427,559.365723 
	C1406.246338,559.244690 1405.155518,558.976990 1405.096558,559.123779 
	C1403.448242,563.227356 1401.904297,567.372925 1399.891602,572.708740 
	C1398.792114,569.384827 1398.230957,567.039429 1397.243408,564.889954 
	C1396.299561,562.835876 1394.911865,560.985779 1393.719238,559.046021 
	C1392.526489,561.038757 1391.181641,562.958740 1390.184082,565.044800 
	C1389.193481,567.116211 1388.552490,569.354797 1387.637695,571.848633 
	C1384.155029,567.816895 1386.160156,561.671936 1381.096191,559.397766 
	C1381.828369,565.165222 1383.109985,570.635254 1384.856079,575.952698 
	C1385.179443,576.937561 1387.377563,577.306763 1389.207520,577.460876 
M1247.113403,499.632629 
	C1247.113403,496.883209 1247.113403,494.133789 1247.113403,491.326477 
	C1244.384888,491.326477 1242.325073,491.326477 1240.192139,491.326477 
	C1240.192139,500.637421 1240.192139,509.631256 1240.192139,518.694580 
	C1242.605469,518.694580 1244.688843,518.694580 1247.113037,518.694580 
	C1247.113037,512.473511 1247.113037,506.535339 1247.113403,499.632629 
M1328.998901,575.904114 
	C1324.686279,576.115295 1322.134033,574.489990 1322.287964,569.126343 
	C1326.589233,569.126343 1330.618896,569.126343 1334.620605,569.126343 
	C1334.481689,562.321045 1332.655396,559.529968 1328.307373,558.878662 
	C1324.036865,558.238892 1320.394897,560.522827 1319.076660,564.667053 
	C1317.331421,570.153259 1319.113037,575.737915 1323.248657,577.745605 
	C1327.120850,579.625305 1331.933594,578.765137 1334.322510,575.241577 
	C1332.503296,575.488892 1331.152954,575.672485 1328.998901,575.904114 
M1463.192017,576.284119 
	C1463.169678,572.454407 1463.656250,568.524597 1462.930420,564.833191 
	C1462.508667,562.688904 1460.503784,559.947388 1458.561523,559.226929 
	C1455.765503,558.190063 1452.211182,558.237915 1449.731201,561.653320 
	C1459.484009,563.195923 1459.484009,563.195923 1459.484985,566.354736 
	C1456.732910,566.838928 1453.696411,566.771484 1451.325562,567.994751 
	C1449.653809,568.857239 1448.066895,571.428101 1447.966675,573.317017 
	C1447.882446,574.904907 1449.916016,577.939331 1451.156982,578.016907 
	C1455.135254,578.265625 1459.180786,577.439270 1463.192017,576.284119 
M1361.928711,562.589050 
	C1361.383667,564.309204 1360.555908,565.995667 1360.345581,567.755798 
	C1359.668579,573.421753 1363.086426,578.178101 1368.081299,578.553101 
	C1372.167725,578.859802 1375.623291,577.759766 1377.276855,573.469604 
	C1379.141113,568.632935 1377.912842,562.931580 1374.390869,560.363403 
	C1370.801147,557.745789 1366.530640,558.307556 1361.928711,562.589050 
M1230.649536,560.094299 
	C1227.552124,564.209045 1227.982422,566.576172 1232.267334,568.717163 
	C1233.604248,569.385132 1235.157593,569.723083 1236.326050,570.594910 
	C1237.390137,571.388672 1238.066895,572.701660 1238.914307,573.785828 
	C1237.593140,574.525024 1236.324097,575.737610 1234.938354,575.890259 
	C1232.955933,576.108643 1230.887939,575.552063 1228.856567,575.326416 
	C1228.737549,575.809570 1228.618530,576.292786 1228.499512,576.775940 
	C1230.862915,579.270630 1234.314453,579.200745 1237.380981,578.289246 
	C1239.256470,577.731812 1241.850952,575.620483 1241.947998,574.070923 
	C1242.066040,572.186035 1240.059937,570.028259 1238.643677,568.250671 
	C1238.007080,567.451599 1236.433960,567.472107 1235.532959,566.792847 
	C1234.227295,565.808411 1233.145752,564.526672 1231.968628,563.371704 
	C1233.576050,562.816406 1235.147461,562.058289 1236.801392,561.764709 
	C1238.351929,561.489380 1239.989868,561.705750 1241.589478,561.705750 
	C1241.570312,560.807434 1241.551147,559.909180 1241.531860,559.010864 
	C1238.111450,559.249756 1234.690918,559.488708 1230.649536,560.094299 
M1422.597656,577.707886 
	C1422.158691,575.700378 1422.158691,575.700317 1419.530640,575.825867 
	C1414.702637,576.056396 1412.769165,574.116516 1412.679077,568.951599 
	C1412.588257,563.741699 1414.488037,561.746643 1419.270508,561.822144 
	C1420.567017,561.842590 1421.869995,561.451721 1424.352295,561.065857 
	C1417.376831,557.147644 1411.245728,558.838379 1410.071655,564.676636 
	C1409.361816,568.204956 1409.975586,572.678467 1411.664062,575.834167 
	C1413.673584,579.590271 1418.135132,579.089722 1422.597656,577.707886 
M1472.259644,578.268311 
	C1474.086060,578.148743 1475.912354,578.029175 1477.738770,577.909607 
	C1477.709595,577.464844 1477.680542,577.020020 1477.651367,576.575256 
	C1471.855713,575.305908 1470.688599,571.742859 1472.882202,562.286621 
	C1474.576172,561.723694 1476.186523,561.188538 1477.796997,560.653320 
	C1477.710938,560.270264 1477.625000,559.887207 1477.538940,559.504150 
	C1475.856445,559.196533 1474.173950,558.888977 1472.690430,558.617737 
	C1472.227905,557.143677 1471.848999,555.936218 1471.314453,554.232849 
	C1469.455200,556.883850 1468.088501,558.832581 1466.721802,560.781372 
	C1468.170898,563.033752 1468.446777,565.551697 1468.994751,568.008911 
	C1469.743408,571.365723 1470.699097,574.676392 1472.259644,578.268311 
M1313.813110,553.420715 
	C1313.175415,552.653992 1312.537842,551.887268 1311.900146,551.120544 
	C1311.461792,552.062500 1310.656250,552.999512 1310.643555,553.947266 
	C1310.546753,561.082764 1310.544312,568.221680 1310.689575,575.355896 
	C1310.709106,576.317566 1311.717163,577.259094 1312.267334,578.210022 
	C1312.786255,577.187195 1313.735352,576.172363 1313.754639,575.140259 
	C1313.884033,568.171753 1313.816650,561.199585 1313.813110,553.420715 
M1246.955688,564.671387 
	C1246.958496,568.300903 1246.875366,571.933899 1247.024780,575.557373 
	C1247.061646,576.452454 1247.854614,577.316345 1248.299927,578.194519 
	C1248.876465,577.430054 1249.928345,576.680237 1249.952393,575.898743 
	C1250.105103,570.953979 1250.112061,565.999512 1249.944946,561.055664 
	C1249.919067,560.290466 1248.751953,559.563782 1247.247192,557.811279 
	C1247.099365,560.826843 1247.028198,562.276428 1246.955688,564.671387 
z"/>
<path fill="#FAFAFA" opacity="1.000000" stroke="none" 
	d="
M1361.998291,357.166107 
	C1367.198486,359.066467 1368.975708,362.375092 1368.593994,367.623505 
	C1368.128784,374.018463 1368.483154,380.473083 1368.483154,387.904724 
	C1342.111816,372.708130 1316.576416,357.993256 1290.102173,342.737366 
	C1290.102173,348.988251 1289.812744,354.417084 1290.300049,359.775360 
	C1290.426147,361.162903 1292.822510,362.610107 1294.451538,363.554779 
	C1316.603394,376.399811 1338.721924,389.306671 1361.047363,401.844910 
	C1366.921143,405.143738 1369.088623,409.380249 1368.911377,415.966248 
	C1368.503906,431.117218 1368.652588,446.283051 1368.566406,461.442780 
	C1368.530396,467.782196 1358.916992,473.464081 1353.389771,470.276794 
	C1325.599365,454.251373 1297.832886,438.183777 1270.136475,421.996826 
	C1268.710815,421.163635 1267.170776,419.125244 1267.110840,417.592102 
	C1266.805298,409.784515 1266.969727,401.958466 1266.969727,393.225372 
	C1293.042358,408.278625 1318.543091,423.001648 1344.739746,438.126465 
	C1345.009155,433.015594 1346.026978,428.345276 1345.204834,424.025116 
	C1344.678955,421.261627 1341.920532,418.189880 1339.332764,416.666718 
	C1316.828613,403.420288 1294.171265,390.431671 1271.461182,377.539612 
	C1268.178345,375.675995 1266.794067,373.655640 1266.849365,369.744598 
	C1267.087158,352.917816 1266.939331,336.085785 1266.965698,319.255707 
	C1266.975098,313.296234 1276.643188,307.690491 1281.821899,310.689484 
	C1308.449097,326.109375 1335.050171,341.574280 1361.998291,357.166107 
z"/>
<path fill="#F9F9F9" opacity="1.000000" stroke="none" 
	d="
M1320.637207,287.509338 
	C1348.291138,303.503204 1375.601440,319.351440 1403.004150,335.038239 
	C1405.866455,336.676788 1406.749146,338.538544 1406.739868,341.717133 
	C1406.645630,374.194977 1406.653442,406.673401 1406.784668,439.151062 
	C1406.797729,442.385864 1405.900635,444.396301 1403.022217,445.934082 
	C1397.178345,449.056122 1391.482544,452.455475 1385.006348,456.150970 
	C1384.875244,453.592621 1384.691528,451.675385 1384.691528,449.758179 
	C1384.691650,419.112061 1384.633057,388.465454 1384.825562,357.820435 
	C1384.853271,353.410553 1383.399536,350.890930 1379.578979,348.710602 
	C1352.423828,333.213959 1325.386719,317.510559 1298.322754,301.854553 
	C1297.213745,301.212982 1296.211426,300.386932 1294.673828,299.305206 
	C1302.109375,294.967590 1309.061768,290.795044 1316.166138,286.899506 
	C1317.171997,286.347931 1318.916992,287.144745 1320.637207,287.509338 
z"/>
<path fill="#E8E8E8" opacity="1.000000" stroke="none" 
	d="
M1453.755615,515.201355 
	C1452.523560,521.126465 1448.419922,518.444275 1445.089722,518.841919 
	C1443.664795,513.409363 1442.284546,508.147064 1440.904297,502.884796 
	C1440.535034,502.824402 1440.165771,502.764038 1439.796509,502.703644 
	C1438.693237,506.831207 1437.489258,510.935394 1436.524170,515.094971 
	C1435.937744,517.622559 1435.157471,519.174622 1432.004639,519.104492 
	C1429.064697,519.039001 1427.565308,518.313049 1426.717285,515.318359 
	C1424.471680,507.387604 1421.871460,499.557159 1419.392212,491.622253 
	C1426.686768,490.409454 1426.662598,490.415619 1428.268433,496.711975 
	C1429.186401,500.311340 1430.197998,503.886841 1431.167358,507.473083 
	C1431.648560,507.499481 1432.129761,507.525848 1432.611084,507.552246 
	C1433.749268,503.192017 1435.016357,498.859894 1435.976074,494.460754 
	C1436.527832,491.931000 1437.568604,490.856781 1440.326050,490.943787 
	C1442.858887,491.023682 1444.201416,491.527283 1444.764282,494.302887 
	C1445.632080,498.582489 1447.052368,502.750061 1448.238281,506.965149 
	C1448.748657,506.998810 1449.259155,507.032471 1449.769531,507.066132 
	C1450.731689,503.547913 1452.096802,500.081940 1452.561523,496.499207 
	C1453.258545,491.126404 1455.969482,489.939056 1461.182983,491.618835 
	C1458.726074,499.405273 1456.293823,507.113098 1453.755615,515.201355 
z"/>
<path fill="#EBEBEB" opacity="1.000000" stroke="none" 
	d="
M1265.623779,516.213928 
	C1263.485229,512.889771 1261.687622,509.629669 1259.890137,506.369568 
	C1259.547363,506.363281 1259.204590,506.356995 1258.861816,506.350708 
	C1258.861816,510.387970 1258.861816,514.425232 1258.861816,518.729248 
	C1256.203125,518.729248 1254.443970,518.729248 1252.374512,518.729248 
	C1252.374512,509.564545 1252.374512,500.510925 1252.374512,491.502686 
	C1257.407349,489.971771 1260.750610,491.086182 1262.321045,496.465942 
	C1263.274658,499.732635 1265.027222,502.766113 1266.889038,506.958435 
	C1268.807861,502.811951 1270.793823,499.736969 1271.662109,496.373505 
	C1273.148193,490.615936 1276.731323,490.194244 1281.681519,491.565094 
	C1281.681519,500.422211 1281.681519,509.346924 1281.681519,518.632568 
	C1279.717041,518.632568 1277.842285,518.632568 1275.460449,518.632568 
	C1275.460449,514.290833 1275.460449,510.032501 1275.460449,505.774170 
	C1275.008179,505.639404 1274.556030,505.504669 1274.103760,505.369904 
	C1272.955322,507.936005 1272.104614,510.703979 1270.550903,512.995300 
	C1269.561157,514.454956 1267.529297,515.208008 1265.623779,516.213928 
z"/>
<path fill="#EBEBEB" opacity="1.000000" stroke="none" 
	d="
M1360.774414,501.078491 
	C1360.774658,497.618988 1360.774658,494.643341 1360.774658,491.204254 
	C1371.909180,489.687683 1371.520508,501.978363 1378.881348,505.491974 
	C1378.881348,500.695496 1378.881348,496.169342 1378.881348,491.341187 
	C1381.402100,491.341187 1383.312866,491.341187 1385.589111,491.341187 
	C1385.589111,500.431122 1385.589111,509.458893 1385.589111,518.473389 
	C1381.460449,519.878296 1378.692993,518.799377 1376.460938,514.963196 
	C1374.271118,511.199554 1371.322021,507.877808 1367.714355,504.657501 
	C1367.714355,509.177460 1367.714355,513.697388 1367.714355,518.603821 
	C1365.272339,518.603821 1363.388306,518.603821 1360.774292,518.603821 
	C1360.774292,513.014282 1360.774292,507.288330 1360.774414,501.078491 
z"/>
<path fill="#E8E8E8" opacity="1.000000" stroke="none" 
	d="
M1356.218018,494.854797 
	C1354.831543,495.754913 1353.492920,496.618073 1352.099243,496.718750 
	C1348.982910,496.943909 1345.838989,496.789185 1342.786011,496.789185 
	C1342.024902,502.032959 1342.024292,502.060150 1346.428833,502.154083 
	C1349.050415,502.210022 1351.674072,502.164337 1354.611572,502.164337 
	C1354.611572,504.200836 1354.611572,505.763977 1354.611572,507.369049 
	C1350.529053,507.873779 1346.520020,508.273560 1342.576050,509.017853 
	C1342.215210,509.085968 1342.270630,511.359131 1342.056396,513.300537 
	C1345.770508,513.300537 1349.051636,513.286865 1352.332520,513.303711 
	C1357.075928,513.328064 1357.075928,513.337524 1356.285034,518.734497 
	C1349.407837,518.734497 1342.484741,518.734497 1334.839722,518.734497 
	C1334.839722,514.200806 1334.839600,509.628265 1334.839600,505.055695 
	C1334.839600,500.593689 1334.839722,496.131683 1334.839722,491.038574 
	C1341.441040,491.038574 1347.702148,490.914215 1353.945435,491.190613 
	C1354.757446,491.226593 1355.478027,493.327393 1356.218018,494.854797 
z"/>
<path fill="#EBEBEB" opacity="1.000000" stroke="none" 
	d="
M1416.902588,511.830414 
	C1412.910278,518.012756 1407.371582,519.827759 1400.722046,518.759155 
	C1395.521973,517.923401 1391.916870,514.901733 1390.040039,510.035645 
	C1387.679199,503.914490 1389.737427,497.338837 1394.954834,493.614044 
	C1400.068604,489.963196 1408.379517,490.124420 1413.222534,493.968414 
	C1418.622437,498.254486 1419.902588,504.117371 1416.902588,511.830414 
M1398.776978,510.792053 
	C1402.161255,513.655334 1405.670410,513.947205 1408.962158,510.835510 
	C1411.949829,508.011383 1412.126099,503.229034 1409.565308,499.951874 
	C1407.046509,496.728546 1403.735718,496.155182 1400.351685,498.156921 
	C1396.316650,500.543823 1395.723999,504.301056 1397.299805,508.507996 
	C1397.528076,509.117584 1397.938843,509.658783 1398.776978,510.792053 
z"/>
<path fill="#E8E8E8" opacity="1.000000" stroke="none" 
	d="
M1218.322754,505.647034 
	C1214.724854,503.338989 1213.508057,499.934631 1215.258911,496.867249 
	C1216.628174,494.468475 1219.590698,492.356476 1222.282959,491.511780 
	C1224.940918,490.677826 1228.227783,491.219269 1231.097656,491.825470 
	C1236.448975,492.955933 1236.622925,493.744110 1233.528687,499.172058 
	C1231.447876,498.552124 1229.308716,497.636078 1227.089111,497.354340 
	C1225.677979,497.175201 1224.147217,497.938232 1222.670166,498.278748 
	C1223.676270,499.367828 1224.501953,500.779663 1225.732178,501.468048 
	C1227.444824,502.426239 1229.495239,502.757599 1231.338989,503.509521 
	C1234.825684,504.931458 1236.396484,507.570740 1236.119995,511.352722 
	C1235.857666,514.943481 1233.970459,517.168152 1230.589478,518.201538 
	C1225.190186,519.851746 1220.042480,519.074341 1215.222290,516.313904 
	C1211.270020,514.050598 1214.562012,511.991882 1215.365356,509.675293 
	C1218.351929,510.826477 1221.000488,512.209229 1223.813721,512.776917 
	C1225.188965,513.054504 1226.870361,511.815125 1228.413208,511.262329 
	C1227.349731,510.216492 1226.452637,508.842102 1225.184814,508.199432 
	C1223.129639,507.157684 1220.831177,506.595947 1218.322754,505.647034 
z"/>
<path fill="#E8E8E8" opacity="1.000000" stroke="none" 
	d="
M1287.636108,491.585602 
	C1292.206543,491.230438 1296.518433,490.909210 1300.799561,491.145630 
	C1306.748169,491.474121 1309.839722,494.952087 1309.922729,500.786224 
	C1310.010254,506.934509 1306.977051,510.654999 1301.117432,511.431519 
	C1299.018066,511.709717 1296.887207,511.749542 1294.569824,511.912292 
	C1294.408936,514.284180 1294.266602,516.381104 1294.107788,518.721069 
	C1291.822144,518.721069 1289.759521,518.721069 1287.363892,518.721069 
	C1287.363892,509.644562 1287.363892,500.756439 1287.636108,491.585602 
M1294.243042,504.092133 
	C1296.146606,507.750458 1299.238892,506.243225 1301.236328,504.904175 
	C1302.482056,504.069000 1303.304321,500.896851 1302.725830,499.380157 
	C1301.245361,495.499115 1297.730225,496.718109 1294.226929,497.135468 
	C1294.226929,499.280518 1294.226929,501.243713 1294.243042,504.092133 
z"/>
<path fill="#D1D1D1" opacity="1.000000" stroke="none" 
	d="
M1211.994629,552.777832 
	C1222.166260,553.782959 1227.451050,561.100525 1224.191772,569.719482 
	C1223.459229,571.656738 1219.863403,574.539612 1219.329834,574.205139 
	C1214.782959,571.354370 1208.150024,578.170105 1205.157349,571.442139 
	C1204.086670,569.035217 1204.589844,564.958008 1206.002808,562.632263 
	C1208.440796,558.618652 1212.834351,559.569946 1216.973511,560.555481 
	C1216.973511,563.192810 1216.791748,565.685669 1217.048584,568.132446 
	C1217.181274,569.396667 1218.092529,570.579163 1218.652100,571.798584 
	C1219.759033,570.765808 1221.423096,569.930725 1221.872559,568.664612 
	C1223.466919,564.171875 1221.532837,559.106323 1217.765625,556.839294 
	C1213.807861,554.457642 1206.670654,555.374573 1203.328491,558.693970 
	C1199.807251,562.191406 1198.669189,569.542053 1200.955444,574.019897 
	C1202.933838,577.894592 1207.352539,579.648010 1213.087769,578.793030 
	C1214.665894,578.557739 1216.228882,578.220764 1218.409058,578.976074 
	C1217.578003,579.650330 1216.850098,580.621216 1215.899536,580.951721 
	C1208.730347,583.444031 1200.640991,580.576843 1198.180664,574.788574 
	C1194.981812,567.262268 1197.989014,557.828735 1204.900391,554.481873 
	C1206.933228,553.497498 1209.358521,553.324158 1211.994629,552.777832 
M1207.126953,567.563782 
	C1207.170288,570.163086 1207.997559,572.920044 1211.004395,571.801758 
	C1215.530884,570.118225 1213.936035,565.947388 1213.846313,562.521240 
	C1209.806885,561.574707 1207.803101,563.173584 1207.126953,567.563782 
z"/>
<path fill="#E8E8E8" opacity="1.000000" stroke="none" 
	d="
M1313.121338,516.393066 
	C1313.110596,507.851624 1313.110596,499.732147 1313.110596,491.300415 
	C1315.633789,491.300415 1317.699707,491.300415 1320.395996,491.300415 
	C1320.395996,498.474487 1320.395996,505.523438 1320.395996,512.974487 
	C1324.453735,512.974487 1327.888550,512.974487 1331.646484,512.974487 
	C1331.775146,514.970337 1331.877686,516.561462 1332.023315,518.821167 
	C1325.885010,518.821167 1319.990723,518.853943 1314.099487,518.735474 
	C1313.764282,518.728760 1313.453979,517.483704 1313.121338,516.393066 
z"/>
<path fill="#D9D9D9" opacity="1.000000" stroke="none" 
	d="
M1388.958984,577.710571 
	C1387.377563,577.306763 1385.179443,576.937561 1384.856079,575.952698 
	C1383.109985,570.635254 1381.828369,565.165222 1381.096191,559.397766 
	C1386.160156,561.671936 1384.155029,567.816895 1387.637695,571.848633 
	C1388.552490,569.354797 1389.193481,567.116211 1390.184082,565.044800 
	C1391.181641,562.958740 1392.526489,561.038757 1393.719238,559.046021 
	C1394.911865,560.985779 1396.299561,562.835876 1397.243408,564.889954 
	C1398.230957,567.039429 1398.792114,569.384827 1399.891602,572.708740 
	C1401.904297,567.372925 1403.448242,563.227356 1405.096558,559.123779 
	C1405.155518,558.976990 1406.246338,559.244690 1407.237427,559.365723 
	C1405.686157,565.212219 1404.281860,570.800354 1402.651611,576.321777 
	C1402.413452,577.128723 1401.107788,578.099854 1400.277832,578.116760 
	C1399.462891,578.133423 1398.182739,577.199829 1397.874146,576.390625 
	C1396.537354,572.885620 1395.481567,569.273560 1393.288696,565.636597 
	C1391.928223,569.578003 1390.567871,573.519409 1388.958984,577.710571 
z"/>
<path fill="#EBEBEB" opacity="1.000000" stroke="none" 
	d="
M1247.113281,500.114899 
	C1247.113037,506.535339 1247.113037,512.473511 1247.113037,518.694580 
	C1244.688843,518.694580 1242.605469,518.694580 1240.192139,518.694580 
	C1240.192139,509.631256 1240.192139,500.637421 1240.192139,491.326477 
	C1242.325073,491.326477 1244.384888,491.326477 1247.113403,491.326477 
	C1247.113403,494.133789 1247.113403,496.883209 1247.113281,500.114899 
z"/>
<path fill="#D9D9D9" opacity="1.000000" stroke="none" 
	d="
M1257.970459,559.679749 
	C1259.174927,559.577026 1260.385254,559.344788 1261.582642,559.398987 
	C1263.967651,559.506958 1266.344116,559.792847 1268.727051,559.964172 
	C1269.924438,560.050232 1271.348022,560.485291 1272.293945,560.012268 
	C1278.660645,556.827698 1283.067993,559.356140 1283.276855,566.532043 
	C1283.363770,569.518799 1283.456787,572.523682 1283.209473,575.492188 
	C1283.119995,576.566101 1282.044556,577.557800 1281.418945,578.586975 
	C1280.942871,578.381836 1280.466797,578.176697 1279.990723,577.971619 
	C1279.990723,574.196045 1280.360840,570.367432 1279.830811,566.667786 
	C1279.574707,564.880737 1277.914429,562.330994 1276.383911,561.892273 
	C1273.248413,560.993530 1271.414795,563.390381 1271.212524,566.394592 
	C1270.958130,570.171204 1271.151245,573.977905 1271.151245,577.771667 
	C1270.698486,578.008606 1270.245728,578.245544 1269.792969,578.482483 
	C1269.169800,577.539124 1268.084717,576.631226 1268.008911,575.645813 
	C1267.767578,572.508484 1268.284424,569.273926 1267.737549,566.214722 
	C1267.441406,564.558228 1265.578369,563.181824 1264.422119,561.679077 
	C1262.683716,563.073975 1259.836670,564.207397 1259.433472,565.917236 
	C1258.540405,569.703552 1258.875000,573.779419 1258.346191,577.364624 
	C1257.979126,571.221313 1257.974731,565.450500 1257.970459,559.679749 
z"/>
<path fill="#D9D9D9" opacity="1.000000" stroke="none" 
	d="
M1329.400757,575.880127 
	C1331.152954,575.672485 1332.503296,575.488892 1334.322510,575.241577 
	C1331.933594,578.765137 1327.120850,579.625305 1323.248657,577.745605 
	C1319.113037,575.737915 1317.331421,570.153259 1319.076660,564.667053 
	C1320.394897,560.522827 1324.036865,558.238892 1328.307373,558.878662 
	C1332.655396,559.529968 1334.481689,562.321045 1334.620605,569.126343 
	C1330.618896,569.126343 1326.589233,569.126343 1322.287964,569.126343 
	C1322.134033,574.489990 1324.686279,576.115295 1329.400757,575.880127 
M1328.351807,566.848511 
	C1329.324341,566.482605 1330.296997,566.116699 1331.269531,565.750793 
	C1330.849609,564.724854 1330.684692,563.111023 1329.956787,562.795410 
	C1328.443237,562.139160 1326.385010,561.549988 1325.011719,562.095032 
	C1323.652100,562.634705 1322.859619,564.603516 1321.120728,566.844604 
	C1324.260864,566.844604 1325.874268,566.844604 1328.351807,566.848511 
z"/>
<path fill="#D9D9D9" opacity="1.000000" stroke="none" 
	d="
M1463.196167,576.655945 
	C1459.180786,577.439270 1455.135254,578.265625 1451.156982,578.016907 
	C1449.916016,577.939331 1447.882446,574.904907 1447.966675,573.317017 
	C1448.066895,571.428101 1449.653809,568.857239 1451.325562,567.994751 
	C1453.696411,566.771484 1456.732910,566.838928 1459.485352,566.356567 
	C1459.484009,563.195923 1459.484009,563.195923 1449.731201,561.653320 
	C1452.211182,558.237915 1455.765503,558.190063 1458.561523,559.226929 
	C1460.503784,559.947388 1462.508667,562.688904 1462.930420,564.833191 
	C1463.656250,568.524597 1463.169678,572.454407 1463.196167,576.655945 
M1454.499268,576.139709 
	C1458.733398,575.659546 1460.359741,573.348267 1459.609375,567.654663 
	C1456.266724,569.388000 1453.721924,570.707703 1451.177124,572.027466 
	C1452.020508,573.345459 1452.863892,574.663452 1454.499268,576.139709 
z"/>
<path fill="#D9D9D9" opacity="1.000000" stroke="none" 
	d="
M1362.127441,562.269775 
	C1366.530640,558.307556 1370.801147,557.745789 1374.390869,560.363403 
	C1377.912842,562.931580 1379.141113,568.632935 1377.276855,573.469604 
	C1375.623291,577.759766 1372.167725,578.859802 1368.081299,578.553101 
	C1363.086426,578.178101 1359.668579,573.421753 1360.345581,567.755798 
	C1360.555908,565.995667 1361.383667,564.309204 1362.127441,562.269775 
M1371.871338,562.140625 
	C1369.399414,562.812073 1365.067017,563.072693 1364.810547,564.233459 
	C1364.093384,567.480591 1364.138062,571.571106 1365.606567,574.448730 
	C1367.300781,577.768555 1373.471802,576.289551 1374.016602,572.383118 
	C1374.453857,569.247314 1373.127319,565.865662 1371.871338,562.140625 
z"/>
<path fill="#D1D1D1" opacity="1.000000" stroke="none" 
	d="
M1230.959961,559.910950 
	C1234.690918,559.488708 1238.111450,559.249756 1241.531860,559.010864 
	C1241.551147,559.909180 1241.570312,560.807434 1241.589478,561.705750 
	C1239.989868,561.705750 1238.351929,561.489380 1236.801392,561.764709 
	C1235.147461,562.058289 1233.576050,562.816406 1231.968628,563.371704 
	C1233.145752,564.526672 1234.227295,565.808411 1235.532959,566.792847 
	C1236.433960,567.472107 1238.007080,567.451599 1238.643677,568.250671 
	C1240.059937,570.028259 1242.066040,572.186035 1241.947998,574.070923 
	C1241.850952,575.620483 1239.256470,577.731812 1237.380981,578.289246 
	C1234.314453,579.200745 1230.862915,579.270630 1228.499512,576.775940 
	C1228.618530,576.292786 1228.737549,575.809570 1228.856567,575.326416 
	C1230.887939,575.552063 1232.955933,576.108643 1234.938354,575.890259 
	C1236.324097,575.737610 1237.593140,574.525024 1238.914307,573.785767 
	C1238.066895,572.701660 1237.390137,571.388672 1236.326050,570.594910 
	C1235.157593,569.723083 1233.604248,569.385132 1232.267334,568.717163 
	C1227.982422,566.576172 1227.552124,564.209045 1230.959961,559.910950 
z"/>
<path fill="#D1D1D1" opacity="1.000000" stroke="none" 
	d="
M1422.301758,577.898193 
	C1418.135132,579.089722 1413.673584,579.590271 1411.664062,575.834167 
	C1409.975586,572.678467 1409.361816,568.204956 1410.071655,564.676636 
	C1411.245728,558.838379 1417.376831,557.147644 1424.352295,561.065857 
	C1421.869995,561.451721 1420.567017,561.842590 1419.270508,561.822144 
	C1414.488037,561.746643 1412.588257,563.741699 1412.679077,568.951599 
	C1412.769165,574.116516 1414.702637,576.056396 1419.530640,575.825867 
	C1422.158691,575.700317 1422.158691,575.700378 1422.301758,577.898193 
z"/>
<path fill="#D9D9D9" opacity="1.000000" stroke="none" 
	d="
M1471.912842,578.137573 
	C1470.699097,574.676392 1469.743408,571.365723 1468.994751,568.008911 
	C1468.446777,565.551697 1468.170898,563.033752 1466.721802,560.781372 
	C1468.088501,558.832581 1469.455200,556.883850 1471.314453,554.232849 
	C1471.848999,555.936218 1472.227905,557.143677 1472.690430,558.617737 
	C1474.173950,558.888977 1475.856445,559.196533 1477.538940,559.504150 
	C1477.625000,559.887207 1477.710938,560.270264 1477.796997,560.653320 
	C1476.186523,561.188538 1474.576172,561.723694 1472.882202,562.286621 
	C1470.688599,571.742859 1471.855713,575.305908 1477.651367,576.575256 
	C1477.680542,577.020020 1477.709595,577.464844 1477.738770,577.909607 
	C1475.912354,578.029175 1474.086060,578.148743 1471.912842,578.137573 
z"/>
<path fill="#D1D1D1" opacity="1.000000" stroke="none" 
	d="
M1291.116455,559.856750 
	C1291.709473,560.008728 1292.479492,560.479492 1292.868408,560.263672 
	C1296.977783,557.983765 1300.798340,557.831909 1303.899414,561.832581 
	C1306.494263,565.179993 1306.368652,572.674194 1303.723511,575.920837 
	C1300.449707,579.939087 1296.435913,578.822449 1291.871094,577.368774 
	C1291.662964,576.131042 1292.009277,574.823120 1292.657959,573.723022 
	C1295.390991,576.644958 1298.096069,576.923889 1300.727173,574.416077 
	C1303.107910,572.146667 1303.191895,565.525696 1300.900513,563.257385 
	C1298.072632,560.458130 1295.216553,561.401917 1292.310547,563.314331 
	C1291.653442,562.129761 1291.195435,561.259216 1290.831543,560.255249 
	C1290.925659,560.121826 1291.116455,559.856750 1291.116455,559.856750 
z"/>
<path fill="#D1D1D1" opacity="1.000000" stroke="none" 
	d="
M1430.184082,558.719116 
	C1431.381592,558.857117 1432.649536,559.320923 1433.764893,559.079346 
	C1440.139893,557.698669 1443.375366,560.076050 1443.555054,566.557434 
	C1443.642700,569.717285 1443.658325,572.885620 1443.509521,576.040833 
	C1443.474243,576.788879 1442.647339,577.499695 1442.184570,578.227661 
	C1441.555664,577.468201 1440.472900,576.757996 1440.384155,575.939941 
	C1440.134155,573.636353 1440.604614,571.233459 1440.205444,568.973145 
	C1439.782715,566.579102 1439.364502,563.267212 1437.736694,562.202576 
	C1434.763428,560.257935 1432.234375,562.829468 1430.027466,565.152344 
	C1429.940430,562.968811 1430.062256,560.843933 1430.184082,558.719116 
z"/>
<path fill="#D9D9D9" opacity="1.000000" stroke="none" 
	d="
M1313.812988,553.824707 
	C1313.816650,561.199585 1313.884033,568.171753 1313.754639,575.140259 
	C1313.735352,576.172363 1312.786255,577.187195 1312.267334,578.210022 
	C1311.717163,577.259094 1310.709106,576.317566 1310.689575,575.355896 
	C1310.544312,568.221680 1310.546753,561.082764 1310.643555,553.947266 
	C1310.656250,552.999512 1311.461792,552.062500 1311.900146,551.120544 
	C1312.537842,551.887268 1313.175415,552.653992 1313.812988,553.824707 
z"/>
<path fill="#D1D1D1" opacity="1.000000" stroke="none" 
	d="
M1345.918823,561.732544 
	C1344.898682,564.029846 1343.462036,566.242310 1342.972046,568.647644 
	C1342.451782,571.201355 1342.947388,573.947876 1342.726562,576.587402 
	C1342.676514,577.187439 1341.566528,577.859741 1340.811035,578.142883 
	C1340.581665,578.228882 1339.504883,577.128235 1339.494873,576.559021 
	C1339.393433,570.805420 1339.432983,565.049438 1339.432983,558.884216 
	C1341.460815,559.399048 1342.789551,559.736450 1344.618164,560.165283 
	C1345.385010,560.748657 1345.651978,561.240601 1345.918823,561.732544 
z"/>
<path fill="#D9D9D9" opacity="1.000000" stroke="none" 
	d="
M1346.343262,561.726746 
	C1345.651978,561.240601 1345.385010,560.748657 1345.066895,560.052002 
	C1351.943237,557.453125 1355.386597,559.502197 1355.746826,566.366943 
	C1355.903198,569.346680 1355.895020,572.349304 1355.705811,575.325317 
	C1355.637329,576.402527 1354.822266,577.432251 1354.347900,578.483643 
	C1353.797607,578.358765 1353.247437,578.233887 1352.697266,578.109009 
	C1352.697266,574.563049 1352.637085,571.015808 1352.713013,567.471497 
	C1352.801392,563.354553 1351.197021,561.108521 1346.343262,561.726746 
z"/>
<path fill="#D1D1D1" opacity="1.000000" stroke="none" 
	d="
M1291.652710,585.941162 
	C1290.673218,585.675842 1288.843140,585.426636 1288.837891,585.142761 
	C1288.681641,576.927612 1288.676636,568.708618 1288.792847,560.492188 
	C1288.798950,560.054138 1290.076172,559.634033 1290.938965,559.531128 
	C1291.116455,559.856750 1290.925659,560.121826 1290.546875,560.508545 
	C1290.095703,568.213806 1289.955566,575.532959 1290.028076,582.850037 
	C1290.038330,583.885681 1291.085449,584.911072 1291.652710,585.941162 
z"/>
<path fill="#D9D9D9" opacity="1.000000" stroke="none" 
	d="
M1246.956421,564.198669 
	C1247.028198,562.276428 1247.099365,560.826843 1247.247192,557.811279 
	C1248.751953,559.563782 1249.919067,560.290466 1249.944946,561.055664 
	C1250.112061,565.999512 1250.105103,570.953979 1249.952393,575.898743 
	C1249.928345,576.680237 1248.876465,577.430054 1248.299927,578.194580 
	C1247.854614,577.316345 1247.061646,576.452454 1247.024780,575.557373 
	C1246.875366,571.933899 1246.958496,568.300903 1246.956421,564.198669 
z"/>
<path fill="#F9F9F9" opacity="1.000000" stroke="none" 
	d="
M1430.291504,558.308044 
	C1430.062256,560.843933 1429.940430,562.968811 1429.871338,565.455688 
	C1429.923828,569.924316 1429.923828,574.030884 1429.923828,578.137451 
	C1429.154663,578.147888 1428.385376,578.158386 1427.616211,578.168884 
	C1427.616211,569.734253 1427.616211,561.299622 1428.143799,552.471680 
	C1429.106445,552.054321 1429.541626,552.030273 1429.976562,552.006287 
	C1430.117432,553.969849 1430.258301,555.933411 1430.291504,558.308044 
z"/>
<path fill="#F9F9F9" opacity="1.000000" stroke="none" 
	d="
M1291.770264,585.511536 
	C1291.085449,584.911072 1290.038330,583.885681 1290.028076,582.850037 
	C1289.955566,575.532959 1290.095703,568.213806 1290.452881,560.641968 
	C1291.195435,561.259216 1291.653442,562.129761 1292.217163,563.715210 
	C1292.333862,567.458435 1292.344727,570.486816 1292.355469,573.515137 
	C1292.009277,574.823120 1291.662964,576.131042 1291.544922,577.688721 
	C1291.811279,580.319519 1291.849487,582.700745 1291.770264,585.511536 
z"/>
<path fill="#EBEBEB" opacity="1.000000" stroke="none" 
	d="
M1257.611816,559.421570 
	C1257.974731,565.450500 1257.979126,571.221313 1257.987061,577.449585 
	C1257.296509,577.567749 1256.000977,577.234253 1255.997681,576.888184 
	C1255.941895,571.198303 1256.036255,565.506470 1256.167480,559.816772 
	C1256.172607,559.590698 1256.875488,559.380798 1257.611816,559.421570 
z"/>
<path fill="#D1D1D1" opacity="1.000000" stroke="none" 
	d="
M1429.986572,551.770447 
	C1429.541626,552.030273 1429.106445,552.054321 1428.346191,552.042114 
	C1428.679443,551.848755 1429.337891,551.691650 1429.986572,551.770447 
z"/>
<path fill="#131313" opacity="1.000000" stroke="none" 
	d="
M1398.521118,510.511841 
	C1397.938843,509.658783 1397.528076,509.117584 1397.299805,508.507996 
	C1395.723999,504.301056 1396.316650,500.543823 1400.351685,498.156921 
	C1403.735718,496.155182 1407.046509,496.728546 1409.565308,499.951874 
	C1412.126099,503.229034 1411.949829,508.011383 1408.962158,510.835510 
	C1405.670410,513.947205 1402.161255,513.655334 1398.521118,510.511841 
z"/>
<path fill="#131313" opacity="1.000000" stroke="none" 
	d="
M1294.234985,503.649536 
	C1294.226929,501.243713 1294.226929,499.280518 1294.226929,497.135468 
	C1297.730225,496.718109 1301.245361,495.499115 1302.725830,499.380157 
	C1303.304321,500.896851 1302.482056,504.069000 1301.236328,504.904175 
	C1299.238892,506.243225 1296.146606,507.750458 1294.234985,503.649536 
z"/>
<path fill="#131313" opacity="1.000000" stroke="none" 
	d="
M1207.145386,567.170654 
	C1207.803101,563.173584 1209.806885,561.574707 1213.846313,562.521240 
	C1213.936035,565.947388 1215.530884,570.118225 1211.004395,571.801758 
	C1207.997559,572.920044 1207.170288,570.163086 1207.145386,567.170654 
z"/>
<path fill="#131313" opacity="1.000000" stroke="none" 
	d="
M1327.919678,566.846558 
	C1325.874268,566.844604 1324.260864,566.844604 1321.120728,566.844604 
	C1322.859619,564.603516 1323.652100,562.634705 1325.011719,562.095032 
	C1326.385010,561.549988 1328.443237,562.139160 1329.956787,562.795410 
	C1330.684692,563.111023 1330.849609,564.724854 1331.269531,565.750793 
	C1330.296997,566.116699 1329.324341,566.482605 1327.919678,566.846558 
z"/>
<path fill="#131313" opacity="1.000000" stroke="none" 
	d="
M1454.103271,576.060608 
	C1452.863892,574.663452 1452.020508,573.345459 1451.177124,572.027466 
	C1453.721924,570.707703 1456.266724,569.388000 1459.609375,567.654663 
	C1460.359741,573.348267 1458.733398,575.659546 1454.103271,576.060608 
z"/>
<path fill="#131313" opacity="1.000000" stroke="none" 
	d="
M1372.227417,562.366882 
	C1373.127319,565.865662 1374.453857,569.247314 1374.016602,572.383118 
	C1373.471802,576.289551 1367.300781,577.768555 1365.606567,574.448730 
	C1364.138062,571.571106 1364.093384,567.480591 1364.810547,564.233459 
	C1365.067017,563.072693 1369.399414,562.812073 1372.227417,562.366882 
z"/>
<path fill="#131313" opacity="1.000000" stroke="none" 
	d="
M1292.657959,573.723022 
	C1292.344727,570.486816 1292.333862,567.458435 1292.416382,564.029236 
	C1295.216553,561.401917 1298.072632,560.458130 1300.900513,563.257385 
	C1303.191895,565.525696 1303.107910,572.146667 1300.727173,574.416077 
	C1298.096069,576.923889 1295.390991,576.644958 1292.657959,573.723022 
z"/>
</svg>