<?xml version="1.0" encoding="UTF-8"?>
<!DOCTYPE svg PUBLIC "-//W3C//DTD SVG 1.1//EN" "http://www.w3.org/Graphics/SVG/1.1/DTD/svg11.dtd">
<svg xmlns="http://www.w3.org/2000/svg" version="1.1" width="1599px" height="833px" style="shape-rendering:geometricPrecision; text-rendering:geometricPrecision; image-rendering:optimizeQuality; fill-rule:evenodd; clip-rule:evenodd" xmlns:xlink="http://www.w3.org/1999/xlink">
<g><path style="opacity:1" fill="#000000" d="M -0.5,-0.5 C 532.5,-0.5 1065.5,-0.5 1598.5,-0.5C 1598.5,277.167 1598.5,554.833 1598.5,832.5C 1065.5,832.5 532.5,832.5 -0.5,832.5C -0.5,554.833 -0.5,277.167 -0.5,-0.5 Z"/></g>
<g><path style="opacity:1" fill="#f8f8f8" d="M 1383.5,453.5 C 1383.67,419.165 1383.5,384.832 1383,350.5C 1382.62,349.944 1382.12,349.611 1381.5,349.5C 1360.88,337.519 1340.21,325.519 1319.5,313.5C 1319.03,312.094 1318.03,311.427 1316.5,311.5C 1308.9,308.033 1301.57,304.033 1294.5,299.5C 1293.44,296.936 1294.44,295.603 1297.5,295.5C 1300.75,294.546 1303.42,292.88 1305.5,290.5C 1309.23,287.798 1313.23,285.964 1317.5,285C 1346.16,302.332 1375.16,319.165 1404.5,335.5C 1405.5,371.16 1405.83,406.827 1405.5,442.5C 1398.21,446.146 1390.88,449.812 1383.5,453.5 Z"/></g>
<g><path style="opacity:1" fill="#989898" d="M 1305.5,290.5 C 1303.42,292.88 1300.75,294.546 1297.5,295.5C 1299.63,293.05 1302.3,291.383 1305.5,290.5 Z"/></g>
<g><path style="opacity:1" fill="#f9f9f9" d="M 1348.5,348.5 C 1348.97,349.906 1349.97,350.573 1351.5,350.5C 1356.03,353.349 1360.7,356.016 1365.5,358.5C 1366.14,363.087 1366.47,367.753 1366.5,372.5C 1366.49,377.222 1365.83,381.555 1364.5,385.5C 1339.44,371.13 1314.44,356.463 1289.5,341.5C 1288.34,347.472 1288.17,353.472 1289,359.5C 1299.77,367.139 1311.27,373.639 1323.5,379C 1337.32,387.62 1351.32,396.12 1365.5,404.5C 1366.45,424.473 1366.79,444.473 1366.5,464.5C 1363.14,465.679 1360.14,467.513 1357.5,470C 1355.83,470.667 1354.17,470.667 1352.5,470C 1345.42,465.131 1338.09,460.798 1330.5,457C 1308.99,444.482 1287.49,431.982 1266,419.5C 1265.33,410.167 1265.33,400.833 1266,391.5C 1291.35,406.919 1316.85,421.919 1342.5,436.5C 1343.29,432.181 1343.95,427.847 1344.5,423.5C 1343.85,420.345 1342.18,417.845 1339.5,416C 1314.84,402.673 1290.51,388.839 1266.5,374.5C 1265.17,353.833 1265.17,333.167 1266.5,312.5C 1269.33,311.253 1272,309.753 1274.5,308C 1276.26,307.202 1277.93,307.369 1279.5,308.5C 1302.53,321.878 1325.53,335.211 1348.5,348.5 Z"/></g>
<g><path style="opacity:1" fill="#767676" d="M 1316.5,311.5 C 1318.03,311.427 1319.03,312.094 1319.5,313.5C 1317.97,313.573 1316.97,312.906 1316.5,311.5 Z"/></g>
<g><path style="opacity:1" fill="#757575" d="M 1348.5,348.5 C 1350.03,348.427 1351.03,349.094 1351.5,350.5C 1349.97,350.573 1348.97,349.906 1348.5,348.5 Z"/></g>
<g><path style="opacity:1" fill="#787878" d="M 1365.5,358.5 C 1367.47,367.44 1368.14,376.773 1367.5,386.5C 1366.21,386.737 1365.21,386.404 1364.5,385.5C 1365.83,381.555 1366.49,377.222 1366.5,372.5C 1366.47,367.753 1366.14,363.087 1365.5,358.5 Z"/></g>
<g><path style="opacity:1" fill="#616161" d="M 1381.5,349.5 C 1382.12,349.611 1382.62,349.944 1383,350.5C 1383.5,384.832 1383.67,419.165 1383.5,453.5C 1382.82,418.961 1382.15,384.294 1381.5,349.5 Z"/></g>
<g><path style="opacity:1" fill="#828282" d="M 1365.5,404.5 C 1366.22,404.918 1366.72,405.584 1367,406.5C 1367.83,426.004 1367.66,445.338 1366.5,464.5C 1366.79,444.473 1366.45,424.473 1365.5,404.5 Z"/></g>
<g><path style="opacity:1" fill="#8f8f8f" d="M 1444.5,497.5 C 1443.08,495.485 1442.41,493.152 1442.5,490.5C 1440.17,490.5 1437.83,490.5 1435.5,490.5C 1435.74,492.898 1435.07,494.898 1433.5,496.5C 1433.67,494.139 1434.01,491.806 1434.5,489.5C 1437.5,489.5 1440.5,489.5 1443.5,489.5C 1443.83,492.167 1444.17,494.833 1444.5,497.5 Z"/></g>
<g><path style="opacity:1" fill="#919191" d="M 1231.5,491.5 C 1225.95,489.858 1220.62,490.191 1215.5,492.5C 1215.95,491.542 1216.62,490.708 1217.5,490C 1219.5,489.833 1221.5,489.667 1223.5,489.5C 1226.53,489.287 1229.19,489.953 1231.5,491.5 Z"/></g>
<g><path style="opacity:1" fill="#eeeeee" d="M 1231.5,491.5 C 1232.59,491.62 1233.25,492.287 1233.5,493.5C 1233.46,495.587 1232.46,496.921 1230.5,497.5C 1227.43,495.82 1224.1,495.153 1220.5,495.5C 1220.5,496.833 1220.5,498.167 1220.5,499.5C 1225.07,500.577 1229.4,502.244 1233.5,504.5C 1235.09,508.604 1234.43,512.271 1231.5,515.5C 1226.18,516.761 1220.84,516.761 1215.5,515.5C 1211.97,515.663 1210.97,514.33 1212.5,511.5C 1213.78,510.032 1215.45,509.365 1217.5,509.5C 1217.61,510.117 1217.94,510.617 1218.5,511C 1221.15,511.497 1223.81,511.664 1226.5,511.5C 1226.5,510.167 1226.5,508.833 1226.5,507.5C 1225.21,507.737 1224.21,507.404 1223.5,506.5C 1221.9,504.926 1219.9,504.259 1217.5,504.5C 1213.69,501.848 1212.52,498.181 1214,493.5C 1214.38,492.944 1214.88,492.611 1215.5,492.5C 1220.62,490.191 1225.95,489.858 1231.5,491.5 Z"/></g>
<g><path style="opacity:1" fill="#f2f2f2" d="M 1260.5,494.5 C 1261.9,497.634 1263.57,500.634 1265.5,503.5C 1267.19,500.122 1268.86,496.789 1270.5,493.5C 1272.9,491.049 1275.9,490.049 1279.5,490.5C 1279.5,499.167 1279.5,507.833 1279.5,516.5C 1277.83,516.5 1276.17,516.5 1274.5,516.5C 1274.83,511.456 1274.49,506.456 1273.5,501.5C 1272.7,501.957 1272.37,502.624 1272.5,503.5C 1271.11,506.639 1269.95,509.972 1269,513.5C 1267,514.833 1265,514.833 1263,513.5C 1261.59,509.985 1260.09,506.651 1258.5,503.5C 1258.63,502.624 1258.3,501.957 1257.5,501.5C 1256.51,506.456 1256.17,511.456 1256.5,516.5C 1254.83,516.5 1253.17,516.5 1251.5,516.5C 1251.5,507.833 1251.5,499.167 1251.5,490.5C 1253.83,490.5 1256.17,490.5 1258.5,490.5C 1258.23,492.38 1258.9,493.713 1260.5,494.5 Z"/></g>
<g><path style="opacity:1" fill="#f3f3f3" d="M 1307.5,495.5 C 1310,502.509 1307.66,507.176 1300.5,509.5C 1297.81,509.336 1295.15,509.503 1292.5,510C 1291.58,512.041 1291.24,514.208 1291.5,516.5C 1289.83,516.5 1288.17,516.5 1286.5,516.5C 1286.5,507.833 1286.5,499.167 1286.5,490.5C 1291.51,490.334 1296.51,490.501 1301.5,491C 1303.8,492.124 1305.8,493.624 1307.5,495.5 Z"/></g>
<g><path style="opacity:1" fill="#fbfbfb" d="M 1318.5,490.5 C 1318.18,497.687 1318.51,504.687 1319.5,511.5C 1322.62,512.479 1325.96,512.813 1329.5,512.5C 1329.5,513.833 1329.5,515.167 1329.5,516.5C 1323.83,516.5 1318.17,516.5 1312.5,516.5C 1312.5,507.833 1312.5,499.167 1312.5,490.5C 1314.5,490.5 1316.5,490.5 1318.5,490.5 Z"/></g>
<g><path style="opacity:1" fill="#fcfcfc" d="M 1354.5,490.5 C 1354.5,491.833 1354.5,493.167 1354.5,494.5C 1349.5,494.5 1344.5,494.5 1339.5,494.5C 1339.21,496.735 1339.54,498.735 1340.5,500.5C 1344.3,501.483 1348.3,501.817 1352.5,501.5C 1352.5,502.833 1352.5,504.167 1352.5,505.5C 1348.3,505.183 1344.3,505.517 1340.5,506.5C 1340.5,508.167 1340.5,509.833 1340.5,511.5C 1344.97,512.486 1349.64,512.819 1354.5,512.5C 1354.5,513.833 1354.5,515.167 1354.5,516.5C 1347.83,516.5 1341.17,516.5 1334.5,516.5C 1334.5,507.833 1334.5,499.167 1334.5,490.5C 1341.17,490.5 1347.83,490.5 1354.5,490.5 Z"/></g>
<g><path style="opacity:1" fill="#f3f3f3" d="M 1375.5,503.5 C 1375.82,505.048 1376.82,505.715 1378.5,505.5C 1378.5,500.5 1378.5,495.5 1378.5,490.5C 1380.17,490.5 1381.83,490.5 1383.5,490.5C 1383.5,499.167 1383.5,507.833 1383.5,516.5C 1381.5,516.5 1379.5,516.5 1377.5,516.5C 1373.71,512.295 1370.38,507.629 1367.5,502.5C 1367.44,501.957 1367.11,501.624 1366.5,501.5C 1365.51,506.792 1365.17,512.125 1365.5,517.5C 1363.5,517.5 1361.5,517.5 1359.5,517.5C 1359.5,508.167 1359.5,498.833 1359.5,489.5C 1361.86,489.337 1364.19,489.503 1366.5,490C 1369.72,494.379 1372.72,498.879 1375.5,503.5 Z"/></g>
<g><path style="opacity:1" fill="#ebebeb" d="M 1407.5,490.5 C 1411.42,492.088 1414.42,494.754 1416.5,498.5C 1416.68,502.234 1416.34,505.901 1415.5,509.5C 1415.67,510.492 1415.34,511.158 1414.5,511.5C 1412.5,512.833 1410.83,514.5 1409.5,516.5C 1393.27,520.267 1386.27,513.934 1388.5,497.5C 1389.52,496.148 1390.52,494.815 1391.5,493.5C 1393.71,493.152 1395.71,492.319 1397.5,491C 1400.82,490.502 1404.15,490.335 1407.5,490.5 Z"/></g>
<g><path style="opacity:1" fill="#ebebeb" d="M 1426.5,495.5 C 1426.26,497.898 1426.93,499.898 1428.5,501.5C 1428.86,503.589 1429.52,505.589 1430.5,507.5C 1431.3,507.043 1431.63,506.376 1431.5,505.5C 1432.77,503.095 1433.43,500.428 1433.5,497.5C 1433.5,497.167 1433.5,496.833 1433.5,496.5C 1435.07,494.898 1435.74,492.898 1435.5,490.5C 1437.83,490.5 1440.17,490.5 1442.5,490.5C 1442.41,493.152 1443.08,495.485 1444.5,497.5C 1446.5,508.167 1448.5,508.167 1450.5,497.5C 1451.61,495.401 1452.28,493.067 1452.5,490.5C 1455.08,490.025 1457.08,490.692 1458.5,492.5C 1456.31,500.928 1453.98,509.261 1451.5,517.5C 1448.83,517.5 1446.17,517.5 1443.5,517.5C 1442.16,511.809 1440.66,506.142 1439,500.5C 1436.76,503.793 1435.59,507.46 1435.5,511.5C 1434.07,512.78 1433.4,514.447 1433.5,516.5C 1430.47,516.868 1427.8,516.202 1425.5,514.5C 1422.72,506.397 1420.39,498.063 1418.5,489.5C 1421.17,489.5 1423.83,489.5 1426.5,489.5C 1426.5,491.5 1426.5,493.5 1426.5,495.5 Z"/></g>
<g><path style="opacity:1" fill="#a5a5a5" d="M 1407.5,490.5 C 1404.15,490.335 1400.82,490.502 1397.5,491C 1395.71,492.319 1393.71,493.152 1391.5,493.5C 1392.34,491.827 1393.68,490.66 1395.5,490C 1399.69,489.188 1403.69,489.355 1407.5,490.5 Z"/></g>
<g><path style="opacity:1" fill="#848484" d="M 1458.5,492.5 C 1457.08,490.692 1455.08,490.025 1452.5,490.5C 1452.28,493.067 1451.61,495.401 1450.5,497.5C 1450.58,494.794 1450.91,492.127 1451.5,489.5C 1454.17,489.5 1456.83,489.5 1459.5,489.5C 1459.74,490.791 1459.4,491.791 1458.5,492.5 Z"/></g>
<g><path style="opacity:1" fill="#c3c3c3" d="M 1238.5,489.5 C 1240.83,489.5 1243.17,489.5 1245.5,489.5C 1245.5,498.833 1245.5,508.167 1245.5,517.5C 1243.17,517.5 1240.83,517.5 1238.5,517.5C 1238.5,508.167 1238.5,498.833 1238.5,489.5 Z"/></g>
<g><path style="opacity:1" fill="#fefefe" d="M 1239.5,490.5 C 1241.17,490.5 1242.83,490.5 1244.5,490.5C 1244.5,499.167 1244.5,507.833 1244.5,516.5C 1242.83,516.5 1241.17,516.5 1239.5,516.5C 1239.5,507.833 1239.5,499.167 1239.5,490.5 Z"/></g>
<g><path style="opacity:1" fill="#bbbbbb" d="M 1274.5,517.5 C 1274.5,517.167 1274.5,516.833 1274.5,516.5C 1276.17,516.5 1277.83,516.5 1279.5,516.5C 1279.5,507.833 1279.5,499.167 1279.5,490.5C 1275.9,490.049 1272.9,491.049 1270.5,493.5C 1270.54,492.417 1270.87,491.417 1271.5,490.5C 1274.43,489.516 1277.43,489.183 1280.5,489.5C 1280.5,498.833 1280.5,508.167 1280.5,517.5C 1278.5,517.5 1276.5,517.5 1274.5,517.5 Z"/></g>
<g><path style="opacity:1" fill="#a8a8a8" d="M 1354.5,494.5 C 1350.03,495.486 1345.36,495.819 1340.5,495.5C 1340.5,497.167 1340.5,498.833 1340.5,500.5C 1339.54,498.735 1339.21,496.735 1339.5,494.5C 1344.5,494.5 1349.5,494.5 1354.5,494.5 Z"/></g>
<g><path style="opacity:1" fill="#a2a2a2" d="M 1307.5,495.5 C 1305.8,493.624 1303.8,492.124 1301.5,491C 1296.51,490.501 1291.51,490.334 1286.5,490.5C 1286.5,499.167 1286.5,507.833 1286.5,516.5C 1288.17,516.5 1289.83,516.5 1291.5,516.5C 1291.24,514.208 1291.58,512.041 1292.5,510C 1295.15,509.503 1297.81,509.336 1300.5,509.5C 1298.39,510.468 1296.06,510.802 1293.5,510.5C 1293.5,512.833 1293.5,515.167 1293.5,517.5C 1290.83,517.5 1288.17,517.5 1285.5,517.5C 1285.5,508.167 1285.5,498.833 1285.5,489.5C 1291.51,489.334 1297.51,489.501 1303.5,490C 1305.45,491.412 1306.79,493.245 1307.5,495.5 Z"/></g>
<g><path style="opacity:1" fill="#181818" d="M 1292.5,495.5 C 1295.19,495.336 1297.85,495.503 1300.5,496C 1302.31,502.698 1299.64,505.531 1292.5,504.5C 1292.5,501.5 1292.5,498.5 1292.5,495.5 Z"/></g>
<g><path style="opacity:1" fill="#535353" d="M 1318.5,489.5 C 1319.49,496.313 1319.82,503.313 1319.5,510.5C 1323.04,510.187 1326.38,510.521 1329.5,511.5C 1326.17,511.5 1322.83,511.5 1319.5,511.5C 1318.51,504.687 1318.18,497.687 1318.5,490.5C 1318.5,490.167 1318.5,489.833 1318.5,489.5 Z"/></g>
<g><path style="opacity:1" fill="#c3c3c3" d="M 1354.5,490.5 C 1347.83,490.5 1341.17,490.5 1334.5,490.5C 1334.5,499.167 1334.5,507.833 1334.5,516.5C 1341.17,516.5 1347.83,516.5 1354.5,516.5C 1354.5,515.167 1354.5,513.833 1354.5,512.5C 1349.64,512.819 1344.97,512.486 1340.5,511.5C 1345.5,511.5 1350.5,511.5 1355.5,511.5C 1355.5,513.5 1355.5,515.5 1355.5,517.5C 1348.17,517.5 1340.83,517.5 1333.5,517.5C 1333.5,508.167 1333.5,498.833 1333.5,489.5C 1340.69,489.175 1347.69,489.509 1354.5,490.5 Z"/></g>
<g><path style="opacity:1" fill="#646464" d="M 1405.5,496.5 C 1402.76,496.401 1400.1,496.735 1397.5,497.5C 1398.49,495.974 1399.99,495.307 1402,495.5C 1403.38,495.514 1404.55,495.848 1405.5,496.5 Z"/></g>
<g><path style="opacity:1" fill="#111111" d="M 1405.5,496.5 C 1407.97,497.654 1409.3,499.654 1409.5,502.5C 1409.42,510.262 1405.75,512.928 1398.5,510.5C 1397.05,509.06 1396.05,507.394 1395.5,505.5C 1395.29,502.549 1395.95,499.882 1397.5,497.5C 1400.1,496.735 1402.76,496.401 1405.5,496.5 Z"/></g>
<g><path style="opacity:1" fill="#9d9d9d" d="M 1340.5,500.5 C 1344.83,500.5 1349.17,500.5 1353.5,500.5C 1353.5,502.5 1353.5,504.5 1353.5,506.5C 1349.17,506.5 1344.83,506.5 1340.5,506.5C 1344.3,505.517 1348.3,505.183 1352.5,505.5C 1352.5,504.167 1352.5,502.833 1352.5,501.5C 1348.3,501.817 1344.3,501.483 1340.5,500.5 Z"/></g>
<g><path style="opacity:1" fill="#808080" d="M 1426.5,495.5 C 1428.07,497.102 1428.74,499.102 1428.5,501.5C 1426.93,499.898 1426.26,497.898 1426.5,495.5 Z"/></g>
<g><path style="opacity:1" fill="#8a8a8a" d="M 1433.5,497.5 C 1433.43,500.428 1432.77,503.095 1431.5,505.5C 1431.29,502.505 1431.96,499.838 1433.5,497.5 Z"/></g>
<g><path style="opacity:1" fill="#838383" d="M 1397.5,497.5 C 1395.95,499.882 1395.29,502.549 1395.5,505.5C 1393.82,502.282 1394.48,499.615 1397.5,497.5 Z"/></g>
<g><path style="opacity:1" fill="#bdbdbd" d="M 1260.5,494.5 C 1258.9,493.713 1258.23,492.38 1258.5,490.5C 1256.17,490.5 1253.83,490.5 1251.5,490.5C 1251.5,499.167 1251.5,507.833 1251.5,516.5C 1253.17,516.5 1254.83,516.5 1256.5,516.5C 1256.5,516.833 1256.5,517.167 1256.5,517.5C 1254.5,517.5 1252.5,517.5 1250.5,517.5C 1250.5,508.167 1250.5,498.833 1250.5,489.5C 1253.5,489.5 1256.5,489.5 1259.5,489.5C 1259.63,491.216 1259.96,492.883 1260.5,494.5 Z"/></g>
<g><path style="opacity:1" fill="#727272" d="M 1367.5,502.5 C 1366.83,507.5 1366.17,512.5 1365.5,517.5C 1365.17,512.125 1365.51,506.792 1366.5,501.5C 1367.11,501.624 1367.44,501.957 1367.5,502.5 Z"/></g>
<g><path style="opacity:1" fill="#b1b1b1" d="M 1377.5,516.5 C 1379.5,516.5 1381.5,516.5 1383.5,516.5C 1383.5,507.833 1383.5,499.167 1383.5,490.5C 1381.83,490.5 1380.17,490.5 1378.5,490.5C 1378.5,495.5 1378.5,500.5 1378.5,505.5C 1376.82,505.715 1375.82,505.048 1375.5,503.5C 1376.12,503.611 1376.62,503.944 1377,504.5C 1377.5,499.511 1377.67,494.511 1377.5,489.5C 1379.83,489.5 1382.17,489.5 1384.5,489.5C 1384.5,498.833 1384.5,508.167 1384.5,517.5C 1381.94,517.802 1379.61,517.468 1377.5,516.5 Z"/></g>
<g><path style="opacity:1" fill="#6a6a6a" d="M 1416.5,498.5 C 1417.64,501.64 1417.81,504.973 1417,508.5C 1416.62,509.056 1416.12,509.389 1415.5,509.5C 1416.34,505.901 1416.68,502.234 1416.5,498.5 Z"/></g>
<g><path style="opacity:1" fill="#8a8a8a" d="M 1217.5,504.5 C 1219.9,504.259 1221.9,504.926 1223.5,506.5C 1221.1,506.741 1219.1,506.074 1217.5,504.5 Z"/></g>
<g><path style="opacity:1" fill="#7c7c7c" d="M 1274.5,516.5 C 1274.5,516.833 1274.5,517.167 1274.5,517.5C 1273.83,512.833 1273.17,508.167 1272.5,503.5C 1272.37,502.624 1272.7,501.957 1273.5,501.5C 1274.49,506.456 1274.83,511.456 1274.5,516.5 Z"/></g>
<g><path style="opacity:1" fill="#8d8d8d" d="M 1217.5,509.5 C 1215.45,509.365 1213.78,510.032 1212.5,511.5C 1212.84,507.161 1214.5,506.494 1217.5,509.5 Z"/></g>
<g><path style="opacity:1" fill="#696969" d="M 1258.5,503.5 C 1257.83,508.167 1257.17,512.833 1256.5,517.5C 1256.5,517.167 1256.5,516.833 1256.5,516.5C 1256.17,511.456 1256.51,506.456 1257.5,501.5C 1258.3,501.957 1258.63,502.624 1258.5,503.5 Z"/></g>
<g><path style="opacity:1" fill="#545454" d="M 1414.5,511.5 C 1413.83,514.167 1412.17,515.833 1409.5,516.5C 1410.83,514.5 1412.5,512.833 1414.5,511.5 Z"/></g>
<g><path style="opacity:1" fill="#a1a1a1" d="M 1215.5,515.5 C 1220.84,516.761 1226.18,516.761 1231.5,515.5C 1229.19,517.047 1226.53,517.713 1223.5,517.5C 1220.47,517.713 1217.81,517.047 1215.5,515.5 Z"/></g>
<g><path style="opacity:1" fill="#bdbdbd" d="M 1318.5,489.5 C 1318.5,489.833 1318.5,490.167 1318.5,490.5C 1316.5,490.5 1314.5,490.5 1312.5,490.5C 1312.5,499.167 1312.5,507.833 1312.5,516.5C 1318.17,516.5 1323.83,516.5 1329.5,516.5C 1329.5,515.167 1329.5,513.833 1329.5,512.5C 1325.96,512.813 1322.62,512.479 1319.5,511.5C 1322.83,511.5 1326.17,511.5 1329.5,511.5C 1330.46,513.265 1330.79,515.265 1330.5,517.5C 1324.17,517.5 1317.83,517.5 1311.5,517.5C 1311.5,508.167 1311.5,498.833 1311.5,489.5C 1313.83,489.5 1316.17,489.5 1318.5,489.5 Z"/></g>
<g><path style="opacity:1" fill="#949494" d="M 1435.5,511.5 C 1435.74,513.467 1435.41,515.301 1434.5,517C 1431.52,517.498 1428.52,517.665 1425.5,517.5C 1425.5,516.5 1425.5,515.5 1425.5,514.5C 1427.8,516.202 1430.47,516.868 1433.5,516.5C 1433.4,514.447 1434.07,512.78 1435.5,511.5 Z"/></g>
<g><path style="opacity:1" fill="#828282" d="M 1311.5,576.5 C 1310.83,541.833 1310.17,541.833 1309.5,576.5C 1308.51,567.682 1308.17,558.682 1308.5,549.5C 1309.83,549.5 1311.17,549.5 1312.5,549.5C 1312.83,558.682 1312.49,567.682 1311.5,576.5 Z"/></g>
<g><path style="opacity:1" fill="#fefefe" d="M 1311.5,576.5 C 1310.83,576.5 1310.17,576.5 1309.5,576.5C 1310.17,541.833 1310.83,541.833 1311.5,576.5 Z"/></g>
<g><path style="opacity:1" fill="#cbcbcb" d="M 1245.5,550.5 C 1246.5,550.5 1247.5,550.5 1248.5,550.5C 1248.5,551.833 1248.5,553.167 1248.5,554.5C 1247.5,554.5 1246.5,554.5 1245.5,554.5C 1245.5,553.167 1245.5,551.833 1245.5,550.5 Z"/></g>
<g><path style="opacity:1" fill="#717171" d="M 1430.5,558.5 C 1430.44,559.043 1430.11,559.376 1429.5,559.5C 1428.83,556.5 1428.17,553.5 1427.5,550.5C 1426.5,559.141 1426.17,567.808 1426.5,576.5C 1425.51,567.682 1425.17,558.682 1425.5,549.5C 1426.83,549.5 1428.17,549.5 1429.5,549.5C 1429.19,552.713 1429.52,555.713 1430.5,558.5 Z"/></g>
<g><path style="opacity:1" fill="#dddddd" d="M 1475.5,557.5 C 1474.45,559.256 1472.78,559.923 1470.5,559.5C 1470.18,564.363 1470.51,569.03 1471.5,573.5C 1473.04,574.163 1474.71,574.83 1476.5,575.5C 1473.97,576.777 1471.47,576.777 1469,575.5C 1467.61,570.628 1467.11,565.628 1467.5,560.5C 1466.32,560.719 1465.32,560.386 1464.5,559.5C 1466.18,558.231 1467.35,556.564 1468,554.5C 1468.41,554.043 1468.91,553.709 1469.5,553.5C 1470.43,554.689 1470.76,556.022 1470.5,557.5C 1472.17,557.5 1473.83,557.5 1475.5,557.5 Z"/></g>
<g><path style="opacity:1" fill="#e2e2e2" d="M 1254.5,557.5 C 1257.15,558.821 1259.82,558.821 1262.5,557.5C 1264.8,557.732 1266.96,558.399 1269,559.5C 1272.29,557.403 1275.79,557.07 1279.5,558.5C 1281.39,564.276 1282.06,570.276 1281.5,576.5C 1280.5,576.5 1279.5,576.5 1278.5,576.5C 1278.5,571.167 1278.5,565.833 1278.5,560.5C 1275.31,560.02 1272.48,560.686 1270,562.5C 1269.5,567.155 1269.33,571.821 1269.5,576.5C 1268.5,576.5 1267.5,576.5 1266.5,576.5C 1266.67,571.489 1266.5,566.489 1266,561.5C 1263.08,559.987 1260.42,560.32 1258,562.5C 1257.5,567.155 1257.33,571.821 1257.5,576.5C 1256.5,576.5 1255.5,576.5 1254.5,576.5C 1254.5,570.167 1254.5,563.833 1254.5,557.5 Z"/></g>
<g><path style="opacity:1" fill="#cecece" d="M 1229.5,557.5 C 1233.38,557.085 1237.04,557.585 1240.5,559C 1237.38,560.405 1234.05,560.905 1230.5,560.5C 1230.35,561.552 1230.52,562.552 1231,563.5C 1233.79,565.142 1236.62,566.642 1239.5,568C 1241.25,571.876 1240.25,574.876 1236.5,577C 1233.01,578.043 1230.01,577.376 1227.5,575C 1230.5,574.667 1233.5,574.333 1236.5,574C 1237.38,572.644 1237.71,571.144 1237.5,569.5C 1234.03,568.848 1230.87,567.515 1228,565.5C 1227.11,562.502 1227.61,559.836 1229.5,557.5 Z"/></g>
<g><path style="opacity:1" fill="#d8d8d8" d="M 1287.5,557.5 C 1291.41,557.838 1295.41,558.005 1299.5,558C 1305.2,562.902 1305.87,568.569 1301.5,575C 1298.04,576.706 1294.54,576.872 1291,575.5C 1290.5,578.817 1290.33,582.15 1290.5,585.5C 1289.5,585.5 1288.5,585.5 1287.5,585.5C 1287.5,576.167 1287.5,566.833 1287.5,557.5 Z"/></g>
<g><path style="opacity:1" fill="#d3d3d3" d="M 1430.5,558.5 C 1434.61,556.776 1438.27,557.443 1441.5,560.5C 1442.45,565.77 1442.78,571.103 1442.5,576.5C 1441.17,576.5 1439.83,576.5 1438.5,576.5C 1438.67,571.489 1438.5,566.489 1438,561.5C 1435.08,559.987 1432.42,560.32 1430,562.5C 1429.5,567.155 1429.33,571.821 1429.5,576.5C 1428.5,576.5 1427.5,576.5 1426.5,576.5C 1426.17,567.808 1426.5,559.141 1427.5,550.5C 1428.17,553.5 1428.83,556.5 1429.5,559.5C 1430.11,559.376 1430.44,559.043 1430.5,558.5 Z"/></g>
<g><path style="opacity:1" fill="#e1e1e1" d="M 1332.5,562.5 C 1332.5,564.167 1332.5,565.833 1332.5,567.5C 1328.3,567.183 1324.3,567.517 1320.5,568.5C 1321.33,573.65 1324.33,575.65 1329.5,574.5C 1330.55,574.351 1331.55,574.517 1332.5,575C 1329.38,576.405 1326.05,576.905 1322.5,576.5C 1320.55,575.718 1319.05,574.384 1318,572.5C 1317.33,568.833 1317.33,565.167 1318,561.5C 1321.42,557.247 1325.59,556.413 1330.5,559C 1331.82,559.816 1332.49,560.983 1332.5,562.5 Z"/></g>
<g><path style="opacity:1" fill="#1a1a1a" d="M 1322.5,560.5 C 1326.93,559.53 1329.26,561.197 1329.5,565.5C 1326.5,565.5 1323.5,565.5 1320.5,565.5C 1320.39,563.486 1321.06,561.82 1322.5,560.5 Z"/></g>
<g><path style="opacity:1" fill="#d4d4d4" d="M 1337.5,557.5 C 1339.14,557.48 1340.48,558.147 1341.5,559.5C 1345.37,556.867 1349.2,556.867 1353,559.5C 1354.4,565.044 1354.9,570.71 1354.5,576.5C 1353.5,576.5 1352.5,576.5 1351.5,576.5C 1351.83,571.456 1351.49,566.456 1350.5,561.5C 1347.39,559.938 1344.55,560.271 1342,562.5C 1341.5,567.155 1341.33,571.821 1341.5,576.5C 1340.17,576.5 1338.83,576.5 1337.5,576.5C 1337.5,570.167 1337.5,563.833 1337.5,557.5 Z"/></g>
<g><path style="opacity:1" fill="#d2d2d2" d="M 1414.5,573.5 C 1416.63,574.314 1418.96,574.814 1421.5,575C 1418.72,576.392 1415.72,576.892 1412.5,576.5C 1405.86,570.407 1405.86,564.24 1412.5,558C 1415.48,557.502 1418.48,557.335 1421.5,557.5C 1421.5,558.5 1421.5,559.5 1421.5,560.5C 1412.43,559.066 1409.27,562.733 1412,571.5C 1412.71,572.381 1413.54,573.047 1414.5,573.5 Z"/></g>
<g><path style="opacity:1" fill="#d3d3d3" d="M 1205.5,551.5 C 1216.07,549.76 1222.07,554.094 1223.5,564.5C 1223.2,567.276 1222.2,569.776 1220.5,572C 1215.5,571.333 1210.5,571.333 1205.5,572C 1201.3,567.368 1201.64,563.035 1206.5,559C 1209.48,558.502 1212.48,558.335 1215.5,558.5C 1215.5,562.5 1215.5,566.5 1215.5,570.5C 1217.39,570.703 1218.89,570.037 1220,568.5C 1221.82,556.326 1216.65,551.826 1204.5,555C 1201.62,556.251 1199.79,558.417 1199,561.5C 1198.21,565.926 1198.54,570.259 1200,574.5C 1201.25,575.211 1202.42,576.044 1203.5,577C 1207.9,577.064 1212.24,577.231 1216.5,577.5C 1214.21,579.765 1211.38,580.765 1208,580.5C 1201.16,579.999 1197.16,576.332 1196,569.5C 1195.26,565.739 1195.6,562.072 1197,558.5C 1199.44,555.546 1202.27,553.213 1205.5,551.5 Z"/></g>
<g><path style="opacity:1" fill="#181818" d="M 1207.5,560.5 C 1209.17,560.5 1210.83,560.5 1212.5,560.5C 1212.66,563.187 1212.5,565.854 1212,568.5C 1208.51,571.59 1206.34,570.923 1205.5,566.5C 1205.72,564.307 1206.39,562.307 1207.5,560.5 Z"/></g>
<g><path style="opacity:1" fill="#101010" d="M 1292.5,560.5 C 1295.36,560.055 1297.86,560.722 1300,562.5C 1300.96,566.572 1300.46,570.405 1298.5,574C 1293.3,574.969 1290.63,572.802 1290.5,567.5C 1290.32,564.837 1290.99,562.503 1292.5,560.5 Z"/></g>
<g><path style="opacity:1" fill="#d2d2d2" d="M 1363.5,557.5 C 1376.52,557.704 1379.85,563.537 1373.5,575C 1363.08,578.383 1358.25,574.55 1359,563.5C 1359.98,561.032 1361.48,559.032 1363.5,557.5 Z"/></g>
<g><path style="opacity:1" fill="#0f0f0f" d="M 1363.5,560.5 C 1366.69,560.02 1369.52,560.686 1372,562.5C 1372.67,565.833 1372.67,569.167 1372,572.5C 1369,575.167 1366,575.167 1363,572.5C 1362.31,568.446 1362.47,564.446 1363.5,560.5 Z"/></g>
<g><path style="opacity:1" fill="#d5d5d5" d="M 1382.5,571.5 C 1382.74,569.102 1382.07,567.102 1380.5,565.5C 1380.17,562.833 1379.83,560.167 1379.5,557.5C 1380.5,557.5 1381.5,557.5 1382.5,557.5C 1382.89,562.083 1384.06,566.416 1386,570.5C 1390.38,553.213 1394.55,553.213 1398.5,570.5C 1400.6,566.435 1401.6,562.101 1401.5,557.5C 1402.83,557.5 1404.17,557.5 1405.5,557.5C 1403.75,563.739 1402.42,570.073 1401.5,576.5C 1399.83,576.5 1398.17,576.5 1396.5,576.5C 1395.84,571.532 1394.34,566.865 1392,562.5C 1390.69,567.276 1389.19,571.943 1387.5,576.5C 1386.17,576.5 1384.83,576.5 1383.5,576.5C 1383.37,574.784 1383.04,573.117 1382.5,571.5 Z"/></g>
<g><path style="opacity:1" fill="#585858" d="M 1475.5,557.5 C 1476.4,558.209 1476.74,559.209 1476.5,560.5C 1474.83,560.5 1473.17,560.5 1471.5,560.5C 1471.5,564.833 1471.5,569.167 1471.5,573.5C 1470.51,569.03 1470.18,564.363 1470.5,559.5C 1472.78,559.923 1474.45,559.256 1475.5,557.5 Z"/></g>
<g><path style="opacity:1" fill="#585858" d="M 1332.5,562.5 C 1333.46,564.265 1333.79,566.265 1333.5,568.5C 1329.17,568.5 1324.83,568.5 1320.5,568.5C 1324.3,567.517 1328.3,567.183 1332.5,567.5C 1332.5,565.833 1332.5,564.167 1332.5,562.5 Z"/></g>
<g><path style="opacity:1" fill="#d9d9d9" d="M 1455.5,576.5 C 1452.76,576.599 1450.1,576.265 1447.5,575.5C 1445.85,571.911 1446.52,568.744 1449.5,566C 1452.48,565.502 1455.48,565.335 1458.5,565.5C 1458.71,563.856 1458.38,562.356 1457.5,561C 1454.47,560.505 1451.47,560.671 1448.5,561.5C 1448.33,560.178 1448.66,559.011 1449.5,558C 1453.54,557.15 1457.37,557.65 1461,559.5C 1461.5,565.157 1461.67,570.824 1461.5,576.5C 1459.39,575.725 1457.39,575.725 1455.5,576.5 Z"/></g>
<g><path style="opacity:1" fill="#141414" d="M 1452.5,567.5 C 1454.5,567.5 1456.5,567.5 1458.5,567.5C 1458.36,572.813 1455.69,574.979 1450.5,574C 1448.93,571.094 1449.6,568.928 1452.5,567.5 Z"/></g>
<g><path style="opacity:1" fill="#e0e0e0" d="M 1245.5,557.5 C 1246.5,557.5 1247.5,557.5 1248.5,557.5C 1248.5,563.833 1248.5,570.167 1248.5,576.5C 1247.5,576.5 1246.5,576.5 1245.5,576.5C 1245.5,570.167 1245.5,563.833 1245.5,557.5 Z"/></g>
<g><path style="opacity:1" fill="#565656" d="M 1380.5,565.5 C 1382.07,567.102 1382.74,569.102 1382.5,571.5C 1380.93,569.898 1380.26,567.898 1380.5,565.5 Z"/></g>
<g><path style="opacity:1" fill="#4a4a4a" d="M 1414.5,573.5 C 1417.17,573.5 1419.83,573.5 1422.5,573.5C 1422.67,574.822 1422.34,575.989 1421.5,577C 1418.3,577.805 1415.3,577.638 1412.5,576.5C 1415.72,576.892 1418.72,576.392 1421.5,575C 1418.96,574.814 1416.63,574.314 1414.5,573.5 Z"/></g>
<g><path style="opacity:1" fill="#494949" d="M 1329.5,574.5 C 1330.57,573.566 1331.9,573.232 1333.5,573.5C 1333.67,574.822 1333.34,575.989 1332.5,577C 1328.97,577.808 1325.64,577.641 1322.5,576.5C 1326.05,576.905 1329.38,576.405 1332.5,575C 1331.55,574.517 1330.55,574.351 1329.5,574.5 Z"/></g>
<g><path style="opacity:1" fill="#6d6d6d" d="M 1447.5,575.5 C 1450.1,576.265 1452.76,576.599 1455.5,576.5C 1454.55,577.152 1453.38,577.486 1452,577.5C 1449.99,577.693 1448.49,577.026 1447.5,575.5 Z"/></g>
</svg>
